<svg xmlns="http://www.w3.org/2000/svg" viewBox="0 0 256 256" role="img" aria-label="Sourdough Toolkit logo"><defs><linearGradient id="bg" x1="32" x2="224" y1="20" y2="232" gradientUnits="userSpaceOnUse"><stop stop-color="#fff4df"/><stop offset="1" stop-color="#d57b32"/></linearGradient><linearGradient id="crust" x1="62" x2="203" y1="76" y2="186" gradientUnits="userSpaceOnUse"><stop stop-color="#f0b35f"/><stop offset=".5" stop-color="#c76c2c"/><stop offset="1" stop-color="#773915"/></linearGradient></defs><rect width="256" height="256" rx="64" fill="#2d2118"/><circle cx="128" cy="128" r="104" fill="url(#bg)"/><path d="M49 151c9-43 43-75 87-80 37-4 70 10 90 41 9 15 12 31 9 48-25 23-61 36-101 36-40 0-71-16-85-45z" fill="url(#crust)"/><path d="M82 143c25 17 62 25 107 20M94 119c24 13 55 18 91 14M121 96c16 10 35 14 57 11" fill="none" stroke="#fff0cf" stroke-width="10" stroke-linecap="round" opacity=".9"/><path d="M78 63c17-10 34-14 52-13m0 0c-5-18 0-32 13-43m-13 43c13-13 31-20 54-21" fill="none" stroke="#496a36" stroke-width="9" stroke-linecap="round"/></svg>