<svg xmlns="http://www.w3.org/2000/svg" viewBox="0 0 256 256">
<defs><linearGradient id="a" x1="0" x2="1" y1="0" y2="1"><stop stop-color="#fff8ea"/><stop offset="1" stop-color="#ffd690"/></linearGradient></defs>
<rect width="256" height="256" rx="56" fill="url(#a)"/>
<circle cx="128" cy="128" r="97" fill="#8f3f16"/>
<path d="M55 140c13-45 50-73 99-68 41 4 72 34 78 74-28 22-67 34-107 31-31-2-55-14-70-37z" fill="#f4c47a"/>
<path d="M86 126c26 18 61 26 98 20M99 101c20 15 46 21 76 18M126 84c11 11 26 16 45 16" fill="none" stroke="#71300f" stroke-width="9" stroke-linecap="round"/>
<path d="M82 63c15-8 31-13 48-14m0 0c-6-14-4-27 6-39m-6 39c10-11 24-18 42-22" stroke="#3f7d36" stroke-width="7" fill="none" stroke-linecap="round"/>
</svg>